<svg xmlns="http://www.w3.org/2000/svg" viewBox="0 0 104.09 93.02"><defs><style>.cls-1{fill:#bcbcb7;}.cls-1,.cls-2,.cls-3,.cls-4,.cls-5,.cls-6,.cls-8,.cls-9{fill-rule:evenodd;}.cls-2{fill:#be6534;}.cls-3{fill:#a6592d;}.cls-4{fill:#c96c38;}.cls-5{fill:#f6dcc0;}.cls-6{fill:#9d4d24;}.cls-7{fill:#74492f;}.cls-8{fill:#7d5136;}.cls-9{fill:#dac1a8;}.cls-10{fill:#fff;}</style></defs><title>apa</title><g id="Lager_2" data-name="Lager 2"><g id="Background"><path class="cls-1" d="M97.22,24.37a9.25,9.25,0,0,0-7-1.6L90,22.31,89.79,22l-.37-.55-.19-.28-.37-.53-.21-.29-.38-.51-.22-.29-.38-.49-.23-.3-.39-.48L86.83,18l-.39-.46-.26-.3-.4-.45-.27-.29-.4-.43-.28-.29-.41-.42-.3-.3-.4-.39-.31-.3L83,14l-.32-.29-.42-.37-.33-.29-.43-.36-.34-.28-.43-.35-.35-.27-.44-.34-.35-.26-.45-.33-.35-.25-.46-.32L77.95,10l-.45-.29-.4-.26-.44-.28L76.25,9,75.8,8.7l-.42-.24-.46-.26L74.51,8,74,7.72l-.43-.22-.47-.24-.44-.21-.47-.22-.45-.2-.47-.21-.46-.19L70.38,6l-.45-.18-.49-.19L69,5.5l-.49-.18L68,5.16,67.51,5,67,4.85l-.5-.15L66,4.55l-.47-.13L65,4.29l-.47-.12L64,4l-.46-.1L63,3.83l-.47-.09L62,3.64l-.48-.08L61,3.47l-.5-.07-.54-.07-.5-.06-.6-.06-.44,0-.7-.05-.36,0-.67,0-.41,0L55.2,3H53.73l-.67,0-.36,0-.7,0-.44,0-.6,0-.5.05-.54.05-.5.06-.54.07-.48.07-.54.08-.47.08-.56.1-.46.09-.55.11-.47.11-.53.12-.48.12-.51.13-.51.14-.48.13-.5.16L41.87,5l-.5.17-.47.16-.49.18-.46.17-.48.19L39,6l-.47.2-.46.19-.47.21-.45.2-.47.22-.43.21-.48.24-.42.21L34.89,8l-.42.23L34,8.47l-.41.24L33.15,9l-.41.25-.45.29-.37.24-.47.31-.36.24-.46.32-.36.26-.45.33-.36.27-.44.34-.35.27-.43.35-.34.28-.43.36-.32.28-.42.38-.32.29L26,14.4l-.31.29-.42.41-.29.29-.41.42-.27.29-.41.44-.27.29-.4.45-.25.28-.4.47-.24.29-.39.48-.22.28-.39.5-.21.28-.38.52-.2.28-.38.54-.19.27-.37.55-.08.13a9.17,9.17,0,0,0-7.39,1.39C6.49,27.2,3.59,35.64,5.67,42.41c1.43,4.65,4.84,7.31,8.67,7.33a15.54,15.54,0,0,0,6.58,5.45,36.87,36.87,0,0,0-2.16,11.15C18.6,79.85,30.62,91.12,49.91,92.8l.33,0h0c1,.09,2,.15,3,.16h.14l.83,0c21.81.16,35.89-11.49,36-26a36.92,36.92,0,0,0-2-11.22A15.56,15.56,0,0,0,95,50.48c3.62-.17,6.85-2.72,8.31-7.14C105.54,36.61,102.8,28.12,97.22,24.37Z"/></g><g id="Objects"><path class="cls-2" d="M7.15,20.56c5.65-3.64,11.93-1.1,14,5.67s-.82,15.21-6.47,18.85-11.93,1.1-14-5.67S1.49,24.2,7.15,20.56Z"/><path class="cls-3" d="M8.56,25.16c-3.66,2.35-4.9,7.78-3.73,11.57s4.78,6.09,8.44,3.74S18.16,32.69,17,28.9,12.22,22.81,8.56,25.16Z"/><path class="cls-2" d="M92.22,21.37c-5.58-3.75-11.9-1.33-14.11,5.4s.52,15.22,6.11,19,11.9,1.33,14.11-5.4S97.8,25.12,92.22,21.37Z"/><path class="cls-3" d="M90.71,26c3.61,2.42,4.75,7.88,3.51,11.64s-4.89,6-8.51,3.57S81,33.29,82.2,29.53,87.1,23.52,90.71,26Z"/><path class="cls-4" d="M50.2,0l1.07,0,.41,0,.67,0,.36,0,.7.05.44,0,.6.06.5.06.54.07.5.07.54.08L57,.64l.54.09L58,.83l.55.11L59,1l.54.13.47.12.53.14.47.13.51.14.5.15.47.15.5.17.46.16L64,2.5l.46.17.49.19.45.18.48.2.46.19.47.21.45.2.47.22.44.21.47.24.43.22.47.25.41.22.46.26.42.24.45.27.4.24.44.28.4.26.45.29.37.25.46.32.35.25.45.33.35.26.44.34.35.27.43.35.34.28.43.36.33.29.42.37L78,11l.42.39.31.3.4.39.3.3.41.42.28.29.4.43.27.29.4.45.26.3.39.46.24.29.39.48.23.3.38.49.22.29.38.51.21.29.37.53.19.28.37.55.18.28.35.56.17.28.35.58L86,21l.33.58.16.29.32.59.14.27.32.64.11.22.33.69.09.2.32.71.08.18.31.75.06.15.31.79,0,.12c.1.27.2.55.3.83l0,.12a41.71,41.71,0,0,1,2.29,13h0c0,.4.14-10.57,0,1.19S72.23,57.82,49.11,57.55,7.72,53.12,7.86,41.37s0-.8,0-1.19h0a41.7,41.7,0,0,1,2.59-12.94l0-.12c.1-.28.21-.55.32-.82l0-.12c.11-.26.22-.52.33-.78l.06-.15.33-.74.08-.18.34-.71.1-.2.34-.68.11-.22.34-.63.14-.27L13.4,21l.17-.29.34-.58.17-.28.36-.57.18-.27.37-.55.19-.27.38-.54.2-.28.38-.52.21-.28.39-.5.22-.28.39-.48.24-.29.4-.47.25-.28.4-.45.27-.29.41-.44.27-.29.41-.42.29-.29.42-.41L21,11.4l.41-.38.32-.29.42-.38.32-.28.43-.36.34-.28.43-.35L24,8.81l.44-.34.36-.27.45-.33.36-.26.46-.32.36-.24.47-.31.37-.24.45-.29L28.15,6l.45-.27L29,5.47l.46-.26L29.89,5l.46-.25.42-.21.48-.24.43-.21.47-.22.45-.2.47-.21.46-.19L34,3l.46-.18.48-.19.46-.17.49-.18.47-.16.5-.17.47-.15.5-.16.48-.13.51-.14.51-.13.48-.12.53-.12.47-.11.55-.11.46-.09.56-.1.47-.08.54-.08L43.87.4l.54-.07.5-.06.54-.05L46,.17l.6,0,.44,0,.7,0,.36,0,.67,0H50.2Z"/><path class="cls-4" d="M49.79,22.77H50C71.82,22.93,85.36,49.53,85.25,64s-14.19,26.15-36,26S13.59,77.84,13.76,63.34,28,22.51,49.79,22.77Z"/><path class="cls-5" d="M33.35,18.43l32.57.38c8.54.1,16.88,5.86,16.8,12.85S75,44.23,65.62,44.12l-32.57-.38c-9.36-.11-16.88-5.86-16.8-12.85S24.8,18.33,33.35,18.43Z"/><path class="cls-5" d="M48.91,36.08c17.55.21,31.63,12.44,31.46,27.33S65.83,90.2,48.28,90,20.55,77.81,20.73,62.92,31.36,35.88,48.91,36.08Z"/><path class="cls-6" d="M64.58,68.57a23.26,23.26,0,0,1-32.07-.35,61.3,61.3,0,0,0,16,2.25A61.43,61.43,0,0,0,64.58,68.57Z"/><ellipse class="cls-7" cx="42.44" cy="45.16" rx="1.93" ry="3.78" transform="translate(-18.33 57.33) rotate(-58.11)"/><path class="cls-8" d="M39.42,42.94c.72-.64,2.43-.42,4,.58,1.42.88,2.33,2.11,2.35,3-.72.65-2.43.42-4-.58C40.34,45.08,39.43,43.86,39.42,42.94Z"/><ellipse class="cls-7" cx="55.76" cy="45.29" rx="3.78" ry="1.93" transform="translate(-15.32 34.92) rotate(-30.78)"/><path class="cls-8" d="M58.82,43.13c-.71-.66-2.42-.47-4,.5-1.44.86-2.37,2.06-2.41,3,.71.66,2.42.47,4.05-.5C57.85,45.25,58.79,44,58.82,43.13Z"/><path class="cls-9" d="M49,48.19h0a.26.26,0,0,0-.27.26l-.2,18.19a.26.26,0,0,0,.26.26h0a.26.26,0,0,0,.27-.26l.2-18.19A.26.26,0,0,0,49,48.19Z"/><path class="cls-10" d="M28.94,38.94a5.8,5.8,0,1,0-4.56-6.82A5.8,5.8,0,0,0,28.94,38.94Zm-2.46-6.4A3.66,3.66,0,1,1,33.66,34a3.79,3.79,0,0,1-.22.72,3.52,3.52,0,0,0-2.22-1.3A4.32,4.32,0,0,0,26.87,35,3.63,3.63,0,0,1,26.48,32.54Z"/><path d="M31.21,33.39a3.52,3.52,0,0,1,2.22,1.3,3.79,3.79,0,0,0,.22-.72A3.66,3.66,0,1,0,26.87,35,4.32,4.32,0,0,1,31.21,33.39Z"/><path class="cls-10" d="M74.76,32.12a5.8,5.8,0,1,0-4.56,6.82A5.8,5.8,0,0,0,74.76,32.12ZM72.27,35a4.32,4.32,0,0,0-4.35-1.64,3.52,3.52,0,0,0-2.22,1.3,3.79,3.79,0,0,1-.22-.72A3.66,3.66,0,1,1,72.27,35Z"/><path d="M67.92,33.39a3.52,3.52,0,0,0-2.22,1.3,3.79,3.79,0,0,1-.22-.72A3.66,3.66,0,1,1,72.27,35,4.32,4.32,0,0,0,67.92,33.39Z"/></g></g></svg>