<svg xmlns="http://www.w3.org/2000/svg" viewBox="0 0 123.98 115.1"><defs><style>.cls-1{fill:#bcbcb7;}.cls-1,.cls-2,.cls-3,.cls-4,.cls-5,.cls-6{fill-rule:evenodd;}.cls-2{fill:#bfc7d3;}.cls-3{fill:#b4bbc5;}.cls-4,.cls-7{fill:#fff;}.cls-5{fill:#b4b8c3;}.cls-6{fill:#8d8f92;}</style></defs><title>elefant</title><g id="Lager_2" data-name="Lager 2"><g id="Background"><path class="cls-1" d="M119.66,71.8h0c-1.45.17-3,.29-4.58.35C116.69,72.09,118.21,72,119.66,71.8Z"/><path class="cls-1" d="M25.64,65.3c1.89,5,6.24,9.43,12.27,12.87h0a48.74,48.74,0,0,0,7.31,3.37c-4.49,3.13-11.89,2.12-11.92,2.92-.12,2.46,10.39,5.86,17.84.06,2.49,12.09,9.19,23.72,18.31,28,12.76,5.95,38.51,1.67,43.54-11.68,1.22-1.06.87-3.51-2.93-2.55.33-2.31-.48-5.6-2.74-3-3.85,4.21-11.2,4.82-16.56,4.31-7.5-.72-10.32-6.84-11.33-13.91,7.28,4.34,16.46,1.21,16.35-1.09,0-.8-7.57.24-12-3a49.09,49.09,0,0,0,7.43-3.42h0c6-3.44,10.37-7.88,12.26-12.86,6.06.74,13,4.27,18.65-5.71,4-7.1-4.83-13.13-5-18.06-.41-14,12.45-21.64,4-30.81-6.69-7.26-17.46,1.29-28.79,3.54-1,.2-1.94.42-2.74.65A40.75,40.75,0,0,0,64.53,3,40.74,40.74,0,0,0,39.47,14.93a28.4,28.4,0,0,0-2.8-.67C25.35,12,14.58,3.45,7.88,10.71c-8.45,9.17,4.41,16.85,4,30.81-.15,4.94-9,11-5,18.06C12.55,69.62,19.56,66,25.64,65.3Z"/></g><g id="Objects"><path class="cls-2" d="M110.08,69.15c1.61-.06,3.13-.19,4.58-.35h0C113.22,69,111.69,69.09,110.08,69.15Z"/><path class="cls-3" d="M6.88,38.53c-.15,4.94-9,11-5,18.06,6.77,12,15.48,4.45,22.22,5.75a23.12,23.12,0,0,0,4.94.4,18.33,18.33,0,0,1-5.62-10.05,14.14,14.14,0,0,1-.2-2.31c0-24.46,28.9-35.19,8.43-39.13C20.35,9,9.58.45,2.88,7.71-5.57,16.89,7.3,24.56,6.88,38.53Z"/><path class="cls-3" d="M112.1,38.53c.15,4.94,9,11,5,18.06-6.77,12-15.48,4.45-22.22,5.75a23.13,23.13,0,0,1-4.94.4,18.35,18.35,0,0,0,5.62-10.05,14.37,14.37,0,0,0,.2-2.31c0-24.46-28.9-35.19-8.43-39.13C98.64,9,109.41.45,116.1,7.71,124.55,16.89,111.69,24.56,112.1,38.53Z"/><path class="cls-2" d="M59.53,0A40.88,40.88,0,0,0,22.65,40.68a41.64,41.64,0,0,0,.42,5.87,17.11,17.11,0,0,0-3.5,10.11c0,7.26,5.11,13.82,13.33,18.51h0a50.92,50.92,0,0,0,10,4.3l.25.08q2.07.64,4.27,1.15l.49.11c.55.12,7.81.55,11.57.81,3.76-.26,11-.69,11.57-.81l.49-.11q2.2-.51,4.27-1.15l.25-.08a51.08,51.08,0,0,0,10-4.3h0c8.22-4.69,13.33-11.25,13.33-18.51A17.11,17.11,0,0,0,96,46.55a41.35,41.35,0,0,0,.42-5.87A40.87,40.87,0,0,0,59.53,0Z"/><path class="cls-4" d="M50.15,76.82c-6.8,11.91-22,7.58-21.86,4.63.05-1.07,13.29,1.12,15.08-7.75a3.81,3.81,0,1,1,7.47,1.51,3.91,3.91,0,0,1-.42,1.12Z"/><path class="cls-4" d="M68.92,77c6.8,11.91,22,7.58,21.86,4.63-.05-1.07-13.29,1.12-15.08-7.75a3.81,3.81,0,1,0-7.05,2.63Z"/><path class="cls-5" d="M102.32,92.27c-3.85,4.21-11.2,4.82-16.56,4.31C69.57,95,75.18,68.29,73.74,61.11,71.92,52.05,51.51,53.4,47,59.42,41,75.57,49.46,102.5,64.45,109.47,77.21,115.42,103,111.14,108,97.79c1.22-1.06.87-3.51-2.93-2.55C105.39,92.93,104.58,89.64,102.32,92.27Z"/><path class="cls-6" d="M90.14,99.71a20.43,20.43,0,0,1-.47,5.93c-.76,3.67-1.12,3.94-1.12,3.94l-.3-.45s.18-.14.9-3.6a19.88,19.88,0,0,0,.46-5.77Z"/><path class="cls-6" d="M81.53,98.47a15.33,15.33,0,0,1-2.6,6.52A17.28,17.28,0,0,1,74.35,110l-.29-.45a16.71,16.71,0,0,0,4.43-4.9A14.72,14.72,0,0,0,81,98.43Z"/><path class="cls-6" d="M74.65,92.66a32,32,0,0,1-9.1,5.71c-5.55,2.3-7.45,2.57-7.46,2.57l-.09-.53s1.86-.26,7.34-2.54a31.42,31.42,0,0,0,8.93-5.59Z"/><path class="cls-6" d="M69.47,81.8l-.06,0c-.56.39-3.49,2.46-9.75,3.95-6.89,1.64-8.33.85-8.33.85l.26-.47s1.26.69,8-.9c6.17-1.47,9-3.48,9.57-3.86l.13-.08Z"/><path class="cls-6" d="M68.18,67.28a38.38,38.38,0,0,1-9.54,2.39,50,50,0,0,1-10.7.19l0-.54a49.33,49.33,0,0,0,10.59-.19A37.84,37.84,0,0,0,68,66.78Z"/><path class="cls-7" d="M38.86,45.14a5.8,5.8,0,1,0-4.56-6.82A5.8,5.8,0,0,0,38.86,45.14Zm-2.46-6.4a3.66,3.66,0,1,1,7.18,1.43,3.79,3.79,0,0,1-.22.72,3.52,3.52,0,0,0-2.22-1.3,4.32,4.32,0,0,0-4.35,1.64A3.63,3.63,0,0,1,36.4,38.73Z"/><path d="M41.14,39.58a3.52,3.52,0,0,1,2.22,1.3,3.79,3.79,0,0,0,.22-.72,3.66,3.66,0,1,0-6.79,1.06A4.32,4.32,0,0,1,41.14,39.58Z"/><path class="cls-7" d="M84.68,38.32a5.8,5.8,0,1,0-4.56,6.82A5.8,5.8,0,0,0,84.68,38.32Zm-2.48,2.9a4.32,4.32,0,0,0-4.35-1.64,3.52,3.52,0,0,0-2.22,1.3,3.79,3.79,0,0,1-.22-.72,3.66,3.66,0,1,1,6.79,1.06Z"/><path d="M77.85,39.58a3.52,3.52,0,0,0-2.22,1.3,3.79,3.79,0,0,1-.22-.72,3.66,3.66,0,1,1,6.79,1.06A4.32,4.32,0,0,0,77.85,39.58Z"/></g></g></svg>