<svg xmlns="http://www.w3.org/2000/svg" viewBox="0 0 119.16 99.7"><defs><style>.cls-1{fill:#bcbcb7;fill-rule:evenodd;}.cls-2{fill:#ffbda2;}.cls-3{fill:#ffd6cd;}.cls-4{fill:#ff9669;}.cls-5{fill:#cf7128;}.cls-6{fill:#fff;}.cls-7{fill:#353a42;}</style></defs><title>gris</title><g id="Lager_2" data-name="Lager 2"><g id="Background"><path class="cls-1" d="M106.45,7.29c-8.12.34-12.43,4.35-14.07,6.29a48.31,48.31,0,0,0-60.53.16C30.16,12,25.52,8.17,17.21,8.5,6.46,8.93,5.51,7.14,5.51,7.14S1.45,27.84,16.3,36.24A48.35,48.35,0,1,0,108,35.85C124.16,26.76,118,5,118,5S117.2,6.84,106.45,7.29Z"/></g><g id="Objects"><path class="cls-2" d="M99.33,24.6a4.24,4.24,0,0,0,2.85-.91c3-2.36,2.23-9.06,4.56-11.58,0,0-9.78.69-11.13,6.19,0,.19-.07.36-.1.54A48.37,48.37,0,0,1,99.33,24.6Z"/><path class="cls-2" d="M7.58,13.72C10.11,16,9.9,22.79,13.07,24.89a4.28,4.28,0,0,0,1.53.63,48.4,48.4,0,0,1,4.46-6.84C17,13.62,7.58,13.72,7.58,13.72Z"/><path class="cls-3" d="M57.22,96.7A48.35,48.35,0,0,0,103,32.85C119.16,23.76,113,2,113,2s-.8,1.86-11.55,2.31C93.34,4.62,89,8.63,87.39,10.58a48.31,48.31,0,0,0-60.53.16C25.16,9,20.52,5.17,12.21,5.5,1.46,5.93.51,4.14.51,4.14s-4.06,20.7,10.79,29.1A48.36,48.36,0,0,0,57.22,96.7Zm0-13c-14.14,0-25.61-7.16-25.61-16s11.47-16,25.61-16,25.61,7.16,25.61,16S71.37,83.74,57.22,83.74Zm49.52-71.63c-2.33,2.52-1.58,9.22-4.56,11.58a4.24,4.24,0,0,1-2.85.91,48.37,48.37,0,0,0-3.82-5.76c0-.18.05-.35.1-.54C97,12.79,106.74,12.11,106.74,12.11ZM79.82,42.76a4.88,4.88,0,1,1,4.25,5.44A4.88,4.88,0,0,1,79.82,42.76Zm-45.19,0a4.88,4.88,0,1,1-5.44-4.25A4.88,4.88,0,0,1,34.63,42.76ZM13.07,24.89c-3.16-2.11-3-8.85-5.49-11.17,0,0,9.42-.11,11.48,5a48.4,48.4,0,0,0-4.46,6.84A4.28,4.28,0,0,1,13.07,24.89Z"/><path class="cls-4" d="M57.22,51.74c-14.14,0-25.61,7.16-25.61,16s11.47,16,25.61,16,25.61-7.16,25.61-16S71.37,51.74,57.22,51.74ZM49,73.14a5.4,5.4,0,1,1,5.41-5.4A5.4,5.4,0,0,1,49,73.14Zm16.5,0a5.4,5.4,0,1,1,5.4-5.4A5.4,5.4,0,0,1,65.47,73.14Z"/><circle class="cls-5" cx="48.97" cy="67.74" r="5.4"/><circle class="cls-5" cx="65.47" cy="67.74" r="5.4"/><path class="cls-6" d="M84.07,48.2a4.88,4.88,0,1,0-4.25-5.44A4.88,4.88,0,0,0,84.07,48.2ZM81.6,43a3.08,3.08,0,0,1,6.12.75,3.05,3.05,0,0,1-1,1.88,3.63,3.63,0,0,0-3-2.45,3,3,0,0,0-2.12.45A3.48,3.48,0,0,1,81.6,43Z"/><path class="cls-7" d="M83.71,43.16a3.63,3.63,0,0,1,3,2.45A3.08,3.08,0,0,0,85,40.3,3.09,3.09,0,0,0,81.6,43a3.48,3.48,0,0,0,0,.64A3,3,0,0,1,83.71,43.16Z"/><path class="cls-6" d="M24.94,44a4.88,4.88,0,1,0,4.25-5.44A4.88,4.88,0,0,0,24.94,44Zm4.47-3.65A3.08,3.08,0,0,1,32.85,43a3.23,3.23,0,0,1,0,.64,3,3,0,0,0-2.12-.45,3.63,3.63,0,0,0-3,2.45,3.08,3.08,0,0,1,1.72-5.32Z"/><path class="cls-7" d="M27.69,45.62a3.63,3.63,0,0,1,3-2.45,3,3,0,0,1,2.12.45,3.23,3.23,0,0,0,0-.64,3.08,3.08,0,1,0-5.15,2.64Z"/></g></g></svg>