<svg xmlns="http://www.w3.org/2000/svg" viewBox="0 0 107.41 96.81"><defs><style>.cls-1{fill:#bcbcb7;}.cls-1,.cls-2,.cls-3,.cls-4{fill-rule:evenodd;}.cls-2{fill:#4c210c;}.cls-3{fill:#5c270c;}.cls-4{fill:#c09666;}.cls-5{fill:#844f34;}.cls-6{fill:#fff;}</style></defs><title>hund</title><g id="Lager_2" data-name="Lager 2"><g id="Background"><path class="cls-1" d="M71.7,7.5C68,4.8,63,3.13,56.2,3c-6.79.13-11.77,1.8-15.49,4.5-24.85,5.74-47.56,78.88-28.79,88,10.22,5,10.54-5,11.64-19.7C29.75,84.68,42.95,91.3,56.2,91.57c13.26-.27,26.45-6.9,32.64-15.75,1.1,14.7,1.42,24.67,11.64,19.7C119.26,86.38,96.55,13.25,71.7,7.5Z"/></g><g id="Objects"><path class="cls-2" d="M95.48,92.52c19.27-9.37-5.16-86.18-30.76-88.34a58.75,58.75,0,0,0-4.26,5.34A7.42,7.42,0,0,0,62.2,19.88C96.65,46.4,73.81,103.06,95.48,92.52Z"/><path class="cls-3" d="M98.6,87.8C108.49,68.87,87,7.46,64.2,4.15l-.4.56a7.43,7.43,0,0,0,1.73,10.36C99.86,41.5,77.3,97.86,98.6,87.8Z"/><path class="cls-2" d="M6.92,92.52C-12.35,83.14,12.08,6.34,37.68,4.18a58.08,58.08,0,0,1,4.26,5.34A7.42,7.42,0,0,1,40.2,19.88C5.76,46.4,28.6,103.06,6.92,92.52Z"/><path class="cls-3" d="M3.81,87.8C-6.08,68.87,15.42,7.46,38.2,4.15l.4.56a7.43,7.43,0,0,1-1.73,10.36C2.55,41.5,25.11,97.86,3.81,87.8Z"/><path class="cls-4" d="M51.2,88.57h0c22.38-.46,44.59-19,33.2-35.87C74.48,38,84.35.62,51.2,0h0C18.05.62,27.92,38,18,52.71,6.61,69.55,28.82,88.11,51.2,88.57Z"/><path class="cls-3" d="M72.84,69.65c0,8.76-10.42,15.86-23.28,15.86S26.26,78.4,26.26,69.65,36.69,53.79,49.55,53.79,72.84,60.89,72.84,69.65Z"/><ellipse class="cls-5" cx="55.75" cy="66.53" rx="9.77" ry="6.65"/><path class="cls-6" d="M34.24,43.46a4.93,4.93,0,1,0-3.87-5.8A4.93,4.93,0,0,0,34.24,43.46ZM32.15,38a3.11,3.11,0,1,1,6.11,1.21,3.22,3.22,0,0,1-.19.61,3,3,0,0,0-1.89-1.11,3.67,3.67,0,0,0-3.7,1.39A3.08,3.08,0,0,1,32.15,38Z"/><path d="M36.18,38.74a3,3,0,0,1,1.89,1.11,3.22,3.22,0,0,0,.19-.61,3.11,3.11,0,1,0-5.78.9A3.67,3.67,0,0,1,36.18,38.74Z"/><path class="cls-6" d="M72,37.66a4.93,4.93,0,1,0-3.87,5.8A4.93,4.93,0,0,0,72,37.66Zm-2.11,2.47a3.67,3.67,0,0,0-3.7-1.39,3,3,0,0,0-1.89,1.11,3.23,3.23,0,0,1-.19-.61,3.11,3.11,0,1,1,5.78.9Z"/><path d="M66.23,38.74a3,3,0,0,0-1.89,1.11,3.23,3.23,0,0,1-.19-.61,3.11,3.11,0,1,1,5.78.9A3.67,3.67,0,0,0,66.23,38.74Z"/></g></g></svg>