<svg xmlns="http://www.w3.org/2000/svg" viewBox="0 0 127.59 108.47"><defs><style>.cls-1{fill:#bcbcb7;fill-rule:evenodd;}.cls-2{fill:#fff;}.cls-3{fill:#404040;}.cls-4{fill:#ffd6bc;}.cls-5{fill:#e27e54;}</style></defs><title>ko</title><g id="Lager_2" data-name="Lager 2"><g id="Background"><path class="cls-1" d="M12.67,52.51a45.71,45.71,0,0,0,7.93,0l-.07.42-.06.37c-.1.68-.19,1.37-.26,2.05,0,.19,0,.38-.05.57q-.07.8-.12,1.61c0,.21,0,.41,0,.62,0,.71-.05,1.42-.05,2.14s0,1.66.07,2.49c0,.22,0,.43,0,.65,0,.61.08,1.22.15,1.82,0,.22.06.44.08.66.07.6.15,1.2.25,1.79,0,.19.07.38.1.57.11.62.22,1.25.36,1.86l.11.46c.15.66.31,1.31.49,2l.09.33c.2.69.4,1.37.63,2l.07.2c.24.72.5,1.43.78,2.13l0,.09q.44,1.11.93,2.18a45.72,45.72,0,0,0,10,14.15,30.7,30.7,0,0,0,.43,3.41c.71,3.91,1.92,6.58,3.46,8.36,7,8,20.91-2.46,27.87-2.46,2.51,0,5.94,1.37,9.61,2.74l2.24.81c6.63,2.33,13.63,3.8,17.4-3.1a21.07,21.07,0,0,0,2.08-6.35c.16-.91.27-1.77.35-2.61a46.18,46.18,0,0,0,11.08-15.4c.15.14.28.3.43.44a46.15,46.15,0,0,0,4.18-19.23,46.63,46.63,0,0,0-.65-7.72,46.53,46.53,0,0,0,7.29,0c14.58-1.2,5.45-15.05-3.25-22-4.31-3.42-10.36-2.82-15.37-1.35-.3-.33-.6-.66-.91-1,2.9-1.8,7.8-5.7,9.57-12.28,2.59-9.59,0-12.5-2.36-12.94-1.95-.37-6.25,14.65-16,18.07a46.18,46.18,0,0,0-5.5-3l-.06.26a46.35,46.35,0,0,0-39-.26h0c-.88.4-1.75.84-2.6,1.3l-.68.37q-1.09.61-2.14,1.27l-.29.17C31.36,18.08,27,2.63,25,3c-2.33.45-4.94,3.35-2.36,12.94,1.86,6.9,7.14,10.85,10,12.52l-.13.14-.69.75A30.88,30.88,0,0,0,27,28.27l.1-.19v-.58H23.78a15.47,15.47,0,0,0-2.61.51c-.09,0-.19.17-.28.19-.35.07-.69.22-1,.31-.08,0-.16.08-.25.1a12.11,12.11,0,0,0-1.18.44l-.22.11c-.31.14-.62.3-.92.47l-.3.18a11.07,11.07,0,0,0-1.06.73c-.54.43-1.09.89-1.63,1.37h0c-.54.48-1.07,1-1.6,1.5h0c-.53.52-1,1.06-1.54,1.61h0q-.74.82-1.44,1.67h0C4.14,43.6,1.74,51.62,12.67,52.51ZM26,30.2a22.9,22.9,0,0,1-3.44,5.35A39.79,39.79,0,0,0,26,30.2Z"/></g><g id="Objects"><path class="cls-2" d="M14.87,25.58q.51-.14,1-.25C15.55,25.4,15.2,25.48,14.87,25.58Z"/><path class="cls-2" d="M16.17,25.27A16.11,16.11,0,0,1,18.78,25,16,16,0,0,0,16.17,25.27Z"/><path class="cls-2" d="M19,25a21.21,21.21,0,0,1,2.75.18A21.21,21.21,0,0,0,19,25Z"/><path class="cls-2" d="M4.71,33.72Q5.4,32.87,6.14,32C5.65,32.59,5.17,33.15,4.71,33.72Z"/><path class="cls-2" d="M6.15,32c.5-.55,1-1.09,1.54-1.61C7.16,31,6.65,31.49,6.15,32Z"/><path class="cls-2" d="M7.69,30.43c.52-.52,1.06-1,1.6-1.5C8.75,29.41,8.22,29.91,7.69,30.43Z"/><path class="cls-2" d="M9.3,28.92c.54-.48,1.08-.94,1.63-1.37C10.38,28,9.84,28.44,9.3,28.92Z"/><path class="cls-2" d="M12.29,26.64q.45-.26.92-.47Q12.75,26.39,12.29,26.64Z"/><path class="cls-2" d="M13.44,26.07a12,12,0,0,1,1.18-.43A12.25,12.25,0,0,0,13.44,26.07Z"/><path class="cls-2" d="M10.93,27.55A10.87,10.87,0,0,1,12,26.82,10.87,10.87,0,0,0,10.93,27.55Z"/><path class="cls-2" d="M14.41,35.85A18.2,18.2,0,0,1,21.79,33c-.18.29-.34.58-.52.88a46.49,46.49,0,0,1,6.2-8.31l-.69.75a30.55,30.55,0,0,0-5-1.13C20.52,29.29,17.69,32.77,14.41,35.85Z"/><path class="cls-3" d="M12.15,37.5a24.34,24.34,0,0,1,2.44-1.66,36.79,36.79,0,0,0,7.52-10.76v-.58H18.78a15.47,15.47,0,0,0-2.61.51c-.09,0-.19.17-.28.19-.35.07-.69.22-1,.31-.08,0-.17.08-.25.1a12.11,12.11,0,0,0-1.18.44l-.22.11c-.31.14-.62.3-.92.47l-.3.18a11.07,11.07,0,0,0-1.06.73c-.54.43-1.09.89-1.63,1.37h0c-.54.48-1.07,1-1.6,1.5h0c-.53.52-1,1.06-1.54,1.61h0q-.74.82-1.44,1.67h0A11,11,0,0,0,12.15,37.5Z"/><path class="cls-4" d="M14.41,35.85a22.46,22.46,0,0,0-2.26,1.64,26.7,26.7,0,0,0-4.82,5.23S5,46.85,16.77,44.38l.21-.72c.06-.21.13-.41.2-.62q.21-.66.44-1.31l.27-.74c.16-.43.33-.86.51-1.29l.25-.6c.24-.56.49-1.11.75-1.66l.39-.79c.16-.32.32-.64.49-1s.3-.56.45-.84.36-.63.54-.95.34-.59.52-.87A18.2,18.2,0,0,0,14.41,35.85Z"/><path class="cls-2" d="M111.67,27.55c-4.31-3.42-10.36-2.82-15.37-1.35a46.56,46.56,0,0,1,5.2,6.94c2.63.46,8.61,2.31,13.76,9.58,0,0,2.29,4-8.77,1.79a46.08,46.08,0,0,1,1.14,5,46.53,46.53,0,0,0,7.29,0C129.5,48.32,120.37,34.46,111.67,27.55Z"/><path class="cls-4" d="M115.26,42.73c-5.15-7.28-11.13-9.12-13.76-9.58a46,46,0,0,1,5,11.38C117.55,46.7,115.26,42.73,115.26,42.73Z"/><path class="cls-2" d="M95.39,25.23c2.9-1.8,7.8-5.7,9.57-12.28,2.59-9.59,0-12.5-2.36-12.94-1.95-.37-6.25,14.65-16,18.07A46.58,46.58,0,0,1,95.39,25.23Z"/><path class="cls-2" d="M25.07,101.49c-.1-.6-.19-1.21-.27-1.82Q24.91,100.59,25.07,101.49Z"/><path class="cls-2" d="M96.49,105.85c-.1.33-.21.65-.31,1C96.29,106.5,96.4,106.18,96.49,105.85Z"/><path class="cls-2" d="M97.71,100.34c0,.24-.07.48-.11.72Q97.66,100.7,97.71,100.34Z"/><path class="cls-2" d="M24.58,97.23c0-.69-.06-1.38-.06-2.07C24.52,95.86,24.54,96.55,24.58,97.23Z"/><path class="cls-2" d="M97.07,103.72q-.17.73-.38,1.45Q96.89,104.46,97.07,103.72Z"/><path class="cls-2" d="M97.43,102c0,.24-.09.49-.14.73C97.34,102.51,97.38,102.27,97.43,102Z"/><path class="cls-2" d="M98,96.91c0,.19,0,.39,0,.58C98,97.29,98,97.1,98,96.91Z"/><path class="cls-2" d="M97.91,98.64c0,.23,0,.46-.07.68C97.86,99.09,97.89,98.87,97.91,98.64Z"/><path class="cls-2" d="M24.76,99.35c-.06-.56-.11-1.12-.15-1.69C24.65,98.22,24.7,98.79,24.76,99.35Z"/><path class="cls-2" d="M16,67.13c-.13-.61-.25-1.24-.36-1.86C15.75,65.89,15.87,66.51,16,67.13Z"/><path class="cls-2" d="M15.54,64.69c-.1-.59-.17-1.19-.25-1.79C15.37,63.5,15.45,64.1,15.54,64.69Z"/><path class="cls-2" d="M15,55.14c0-.21,0-.41,0-.62C15,54.73,15,54.94,15,55.14Z"/><path class="cls-2" d="M15.16,52.92c0-.19,0-.38.05-.57C15.19,52.54,15.17,52.73,15.16,52.92Z"/><path class="cls-2" d="M15.47,50.3l.06-.37Z"/><path class="cls-2" d="M15,59.77c0-.82-.07-1.65-.07-2.49C14.95,58.12,15,58.94,15,59.77Z"/><path class="cls-2" d="M17.31,71.91c-.23-.68-.43-1.36-.63-2Q17,70.9,17.31,71.91Z"/><path class="cls-2" d="M16.6,69.54c-.18-.65-.34-1.3-.49-2Q16.33,68.57,16.6,69.54Z"/><path class="cls-2" d="M81.07,15.35a46.35,46.35,0,0,0-39-.26c3.19,11.84-3.6,26.69-7.74,37.24C30.87,61.22,26,70,19.13,76.51a45.72,45.72,0,0,0,10,14.15C27.89,72.36,46.49,71,60.91,71c14.63,0,33.56,1.41,31.68,20.48a46.18,46.18,0,0,0,11.08-15.4C97,69.56,92.28,61,88.87,52.34,84.76,41.86,78,27.15,81.07,15.35ZM47.14,64.25a7.35,7.35,0,1,1,7.6-7.08A7.35,7.35,0,0,1,47.14,64.25Zm20.7-7.08a7.35,7.35,0,1,1,7.6,7.08A7.34,7.34,0,0,1,67.85,57.17Z"/><path class="cls-2" d="M18.16,74.24c-.28-.7-.53-1.41-.78-2.13Q17.75,73.19,18.16,74.24Z"/><path class="cls-2" d="M19.13,76.51q-.49-1.08-.93-2.18Q18.63,75.43,19.13,76.51Z"/><path class="cls-2" d="M15.21,62.24c-.06-.6-.11-1.21-.15-1.82C15.1,61,15.15,61.63,15.21,62.24Z"/><path class="cls-2" d="M16.77,44.38C5,46.85,7.34,42.73,7.34,42.73a26.7,26.7,0,0,1,4.82-5.23A11,11,0,0,1,4.7,33.73c-5.56,6.87-8,14.89,3,15.79a45.71,45.71,0,0,0,7.93,0A45.82,45.82,0,0,1,16.77,44.38Z"/><path class="cls-2" d="M17.89,41l-.27.74Z"/><path class="cls-2" d="M17.18,43.05c-.07.21-.14.41-.2.62C17,43.46,17.11,43.26,17.18,43.05Z"/><path class="cls-2" d="M18.64,39.12l-.25.6Z"/><path class="cls-2" d="M20.73,34.86c-.15.28-.3.56-.45.84C20.43,35.42,20.57,35.14,20.73,34.86Z"/><path class="cls-2" d="M19.78,36.66l-.39.79Z"/><path class="cls-2" d="M42.08,15.1a46.43,46.43,0,0,0-5.71,3.11C26.36,15.08,22-.37,20,0,17.66.45,15,3.35,17.63,12.95c1.86,6.9,7.14,10.85,10,12.52A46.54,46.54,0,0,1,42.08,15.1Z"/><path class="cls-3" d="M42.1,15.1h0A46.54,46.54,0,0,0,27.6,25.47l-.13.14a46.49,46.49,0,0,0-6.2,8.31c-.18.31-.37.63-.54.95s-.3.56-.45.84-.33.64-.49,1l-.39.79c-.26.55-.51,1.1-.75,1.66l-.25.6c-.17.43-.34.85-.51,1.29l-.27.74q-.23.65-.44,1.31c-.07.21-.14.41-.2.62l-.21.72A45.82,45.82,0,0,0,15.6,49.5l-.07.42-.06.37c-.1.68-.19,1.37-.26,2.05,0,.19,0,.38-.05.57q-.07.8-.12,1.61c0,.21,0,.41,0,.62,0,.71-.05,1.42-.05,2.14s0,1.66.07,2.49c0,.22,0,.43,0,.65,0,.61.08,1.22.15,1.82,0,.22.06.44.08.66.07.6.15,1.2.25,1.79,0,.19.07.38.1.57.11.62.22,1.25.36,1.86l.11.46c.15.66.31,1.31.49,2l.09.33c.2.69.4,1.37.63,2l.07.2c.24.72.5,1.43.78,2.13l0,.09q.44,1.11.93,2.18h0C26,70,30.87,61.22,34.36,52.34,38.5,41.78,45.29,26.93,42.1,15.1Z"/><path class="cls-3" d="M101.5,33.15a46.56,46.56,0,0,0-5.2-6.94c-.3-.33-.6-.66-.91-1A46.63,46.63,0,0,0,81.13,15.1l-.06.26c-3,11.79,3.69,26.51,7.8,37C92.28,61,97,69.56,103.67,76.07c.15.14.28.3.43.44a46.15,46.15,0,0,0,4.18-19.23,46.63,46.63,0,0,0-.65-7.72,46.14,46.14,0,0,0-6.13-16.42Z"/><path class="cls-3" d="M82.53,56.64a7.35,7.35,0,1,0-7.08,7.61A7.35,7.35,0,0,0,82.53,56.64Zm-7.41-2.2a2.62,2.62,0,0,1,2.53,2.71,2.59,2.59,0,0,1-.39,1.27,3.22,3.22,0,0,0-3-2.2,2.58,2.58,0,0,0-1.86.6A2.62,2.62,0,0,1,75.12,54.44Z"/><path class="cls-2" d="M77.26,58.42a2.59,2.59,0,0,0,.39-1.27,2.62,2.62,0,0,0-5.22-.33,2.58,2.58,0,0,1,1.86-.6A3.22,3.22,0,0,1,77.26,58.42Z"/><path class="cls-3" d="M54.75,57.17a7.35,7.35,0,1,0-7.6,7.08A7.34,7.34,0,0,0,54.75,57.17Zm-7.27-2.73a2.62,2.62,0,0,1,2.69,2.38,2.58,2.58,0,0,0-1.86-.6,3.21,3.21,0,0,0-3,2.2,2.59,2.59,0,0,1-.39-1.27A2.62,2.62,0,0,1,47.47,54.44Z"/><path class="cls-2" d="M48.3,56.23a2.58,2.58,0,0,1,1.86.6,2.62,2.62,0,1,0-4.83,1.6A3.21,3.21,0,0,1,48.3,56.23Z"/><path class="cls-4" d="M33,102.43c7,8,20.91-2.46,27.87-2.46,2.51,0,5.94,1.37,9.61,2.74l2.24.81c6.63,2.33,13.63,3.8,17.4-3.1a21.07,21.07,0,0,0,2.08-6.35c.17-.91.27-1.77.35-2.61C94.46,72.4,75.54,71,60.91,71c-14.42,0-33,1.36-31.75,19.67a30.7,30.7,0,0,0,.43,3.41C30.29,98,31.5,100.65,33,102.43ZM79,83.2a3.5,3.5,0,1,1-3.5,3.5A3.5,3.5,0,0,1,79,83.2Zm-38,0a3.5,3.5,0,1,1-3.5,3.5A3.5,3.5,0,0,1,41,83.2Z"/><circle class="cls-5" cx="41.02" cy="86.7" r="3.5"/><circle class="cls-5" cx="79.02" cy="86.7" r="3.5"/></g></g></svg>