<svg xmlns="http://www.w3.org/2000/svg" viewBox="0 0 98.48 103.59"><defs><style>.cls-1{fill:#fff;}.cls-2,.cls-5{fill:#3c3c3b;}.cls-3{fill:#f6f6f6;}.cls-4,.cls-5{fill-rule:evenodd;}</style></defs><title>panda</title><g id="Lager_2" data-name="Lager 2"><g id="Objects"><circle class="cls-1" cx="49.24" cy="54.35" r="49.24"/><circle class="cls-2" cx="23.42" cy="54.74" r="12.54"/><circle class="cls-2" cx="75.05" cy="54.74" r="12.54"/><path class="cls-3" d="M49.24,68.67c-8.78,0-15.89,6.84-15.89,15.28v17a48.48,48.48,0,0,0,31.78,0V84C65.13,75.51,58,68.67,49.24,68.67Z"/><path class="cls-2" d="M8.73,3A13.74,13.74,0,0,1,28,5.14l4.31,5.38L10.92,27.72,6.61,22.34A13.74,13.74,0,0,1,8.73,3Z"/><path class="cls-2" d="M89.75,3A13.74,13.74,0,0,0,70.43,5.14l-4.31,5.38,21.44,17.2,4.31-5.38A13.74,13.74,0,0,0,89.75,3Z"/><path class="cls-1" d="M21.19,60.73a5.8,5.8,0,1,0-4.56-6.82A5.8,5.8,0,0,0,21.19,60.73Zm-2.46-6.4a3.66,3.66,0,1,1,7.18,1.43,3.79,3.79,0,0,1-.22.72,3.52,3.52,0,0,0-2.22-1.3,4.32,4.32,0,0,0-4.35,1.64A3.63,3.63,0,0,1,18.73,54.33Z"/><path d="M23.47,55.18a3.52,3.52,0,0,1,2.22,1.3,3.79,3.79,0,0,0,.22-.72,3.66,3.66,0,1,0-6.79,1.06A4.32,4.32,0,0,1,23.47,55.18Z"/><path class="cls-1" d="M81,53.91a5.8,5.8,0,1,0-4.56,6.82A5.8,5.8,0,0,0,81,53.91Zm-2.48,2.9a4.32,4.32,0,0,0-4.35-1.64A3.52,3.52,0,0,0,72,56.48a3.79,3.79,0,0,1-.22-.72,3.66,3.66,0,1,1,6.79,1.06Z"/><path d="M74.17,55.18A3.52,3.52,0,0,0,72,56.48a3.79,3.79,0,0,1-.22-.72,3.66,3.66,0,1,1,6.79,1.06A4.32,4.32,0,0,0,74.17,55.18Z"/><path class="cls-4" d="M49.24,75.46l-.82,0V88.28c-1.66,2.91-3.76,4.56-6.24,4.91-5.28.72-12.54-5.54-12.81-5.27C35,94.19,43.93,98.08,49.24,90.07c5.31,8,14.24,4.12,19.87-2.16-.27-.27-7.53,6-12.81,5.27-2.48-.34-4.58-2-6.24-4.91V75.43Z"/><path class="cls-5" d="M49.24,63.07c-13.47-.14-13.35,4.74-6.3,9.71a46.48,46.48,0,0,0,6.3,3.79,46.47,46.47,0,0,0,6.31-3.79C62.59,67.81,62.71,62.93,49.24,63.07Z"/></g></g></svg>