<svg xmlns="http://www.w3.org/2000/svg" viewBox="0 0 128.9 121.69"><defs><style>.cls-1{fill:#bcbcb7;}.cls-1,.cls-2,.cls-3,.cls-4,.cls-5,.cls-6{fill-rule:evenodd;}.cls-2{fill:#e67a25;}.cls-3{fill:#b95e28;}.cls-4,.cls-7{fill:#fff;}.cls-6{fill:#ee9921;}</style></defs><title>rav</title><g id="Lager_2" data-name="Lager 2"><g id="Background"><path class="cls-1" d="M33.21,63.91c-.62,9.44.68,20.57-6.43,26.39-.36.29-.69.58-1,.86-5.5.32-10.35,1.8-12.37,3.81l6.81,2.19c-3.87,2.88-9.84,10-6.6,17.31l12.3-6.35c-4.2,5.5-4.51,8.25-3.66,13.58,7.13-4.44,23.68-8.35,30.46-9,2.51,3,10.71,8.48,14.81,8.48s12.3-5.5,14.81-8.48c6.78.63,23.33,4.54,30.46,9,.85-5.33.54-8.08-3.66-13.58l12.3,6.35c3.24-7.3-2.73-14.43-6.6-17.31L121.66,95c-2-2-6.87-3.49-12.37-3.81-.32-.28-.65-.57-1-.86-7.17-5.88-5.79-17.16-6.45-26.65C136.86,55.1,128,4.71,127.68,3h0V3l-.15,0-.18,0-.11,0-.29.08-.21.06-.34.1-.28.08-.41.13-.34.11-.48.16-.4.14-.55.19-.46.17-.61.22-.52.2-.65.26-.57.24-.7.29-.62.27-.74.33-.66.31-.79.37-.7.34-.83.41-.73.38-.86.46-.76.42-.89.51-.79.46-.91.55-.82.51-.93.6-.84.56-.95.65-.85.6-1,.71-.86.65-1,.76-.87.7-1,.81-.88.75-1,.87-.88.81-1,.93-.87.86-1,1L95.7,23l-.95,1.06-.85,1c-.31.37-.62.75-.94,1.13s-.56.68-.83,1-.61.8-.92,1.2-.54.71-.81,1.08-.6.85-.9,1.28-.52.75-.78,1.14-.58.9-.87,1.36-.51.79-.75,1.19-.56,1-.84,1.44-.48.82-.72,1.25-.54,1-.81,1.54c-.16.31-.33.61-.49.92a39.62,39.62,0,0,0-16.72-4.93A39.9,39.9,0,0,0,49.9,40.14h0L49.84,40c-.22-.43-.44-.85-.66-1.27s-.54-1.05-.82-1.56-.47-.82-.71-1.23-.56-1-.85-1.45-.5-.79-.75-1.19-.58-.92-.87-1.37-.52-.76-.78-1.13-.6-.87-.9-1.28-.54-.72-.81-1.08-.61-.81-.92-1.21l-.83-1c-.31-.38-.62-.77-.94-1.14l-.85-1L38.2,23l-.86-.91-1-1-.87-.86-1-.94-.87-.8-1-.87-.88-.75-1-.81L30,15.4l-1-.76L28.14,14l-1-.71-.85-.6L25.38,12l-.84-.56-.93-.6-.82-.51-.91-.55-.79-.46-.89-.51-.76-.42L18.57,8l-.73-.38L17,7.17l-.7-.34-.79-.37-.66-.31-.74-.33-.62-.27-.7-.29L12.23,5l-.66-.26-.52-.2-.61-.22L10,4.16,9.44,4,9,3.84l-.48-.16-.34-.11L7.8,3.44l-.28-.08-.34-.1L7,3.19l-.29-.08-.11,0L6.39,3,6.23,3S-3.76,56.06,33.21,63.91Z"/></g><g id="Objects"><path class="cls-2" d="M77.7,39.89C92.46,7,122.67,0,122.67,0s10.54,55.93-30,61.44Z"/><path class="cls-3" d="M81.22,43.8c16.89-30.74,35.45-33.27,35.45-33.27s9.47,34-27.27,47Z"/><path class="cls-3" d="M122.68,0A72.24,72.24,0,0,0,81,38.39q-1-.66-2-1.25C94.15,6.58,122.67,0,122.67,0Z"/><path class="cls-2" d="M46.2,39.89C31.44,7,1.23,0,1.23,0s-10.54,55.93,30,61.44Z"/><path class="cls-3" d="M42.69,43.8C25.8,13.06,7.23,10.53,7.23,10.53s-9.47,34,27.27,47Z"/><path class="cls-3" d="M1.22,0A72.24,72.24,0,0,1,42.86,38.39q1-.66,2-1.25C29.75,6.58,1.23,0,1.23,0Z"/><path class="cls-2" d="M31.07,49.94c-6.29,9.47,1,29-9.29,37.36-20,16.36,21.88,17.35,40,21.23,18.1-3.87,61.48-4.87,41.52-21.23C93,78.89,100.28,59.41,94,49.94,87.17,39.65,74.75,32.36,62.53,31.71,50.31,32.36,37.89,39.65,31.07,49.94Z"/><path class="cls-4" d="M62.53,102.54c-4.27-1.14-15.71,1.49-20.15-6.08-6.58-11.22-29-9.48-34-4.5l6.81,2.19c-3.87,2.88-9.84,10-6.6,17.31l12.3-6.35c-4.2,5.5-4.51,8.25-3.66,13.58,7.13-4.44,23.68-8.35,30.46-9,2.51,3,10.71,8.48,14.81,8.48s12.3-5.5,14.81-8.48c6.78.63,23.33,4.54,30.46,9,.85-5.33.54-8.08-3.66-13.58l12.3,6.35c3.24-7.3-2.73-14.43-6.6-17.31L116.66,92c-5-5-27.4-6.73-34,4.5C78.24,104,66.81,101.4,62.53,102.54Z"/><path class="cls-5" d="M62.53,99.7c-13.47-.14-13.35,4.74-6.3,9.71a46.52,46.52,0,0,0,6.3,3.79,46.51,46.51,0,0,0,6.31-3.79C75.88,104.44,76,99.56,62.53,99.7Z"/><path class="cls-6" d="M34.22,71c-.77,1,18.63-8.46,23.71,11.39,0,0-3.59-6.57-4.81-4.07-2.85,5.85-14.4,4.43-12.75-4C40.83,72.11,34.59,70.87,34.22,71Z"/><path class="cls-6" d="M92,71c.77,1-18.63-8.46-23.71,11.39,0,0,3.59-6.57,4.81-4.07,2.84,5.85,14.4,4.43,12.75-4C85.36,72.11,91.59,70.87,92,71Z"/><path class="cls-7" d="M45.55,80.55a4.93,4.93,0,1,0-3.87-5.8A4.93,4.93,0,0,0,45.55,80.55Zm-2.09-5.44a3.11,3.11,0,1,1,6.11,1.21,3.22,3.22,0,0,1-.19.61,3,3,0,0,0-1.89-1.11,3.67,3.67,0,0,0-3.7,1.39A3.08,3.08,0,0,1,43.46,75.11Z"/><path d="M47.48,75.83a3,3,0,0,1,1.89,1.11,3.22,3.22,0,0,0,.19-.61,3.11,3.11,0,1,0-5.78.9A3.67,3.67,0,0,1,47.48,75.83Z"/><path class="cls-7" d="M83.34,74.76a4.93,4.93,0,1,0-3.87,5.8A4.93,4.93,0,0,0,83.34,74.76Zm-2.11,2.47a3.67,3.67,0,0,0-3.7-1.39,3,3,0,0,0-1.89,1.11,3.22,3.22,0,0,1-.19-.61,3.11,3.11,0,1,1,5.78.9Z"/><path d="M77.54,75.83a3,3,0,0,0-1.89,1.11,3.22,3.22,0,0,1-.19-.61,3.11,3.11,0,1,1,5.78.9A3.67,3.67,0,0,0,77.54,75.83Z"/></g></g></svg>