<svg xmlns="http://www.w3.org/2000/svg" viewBox="0 0 140.06 108.79"><defs><style>.cls-1{fill:#bcbcb7;fill-rule:evenodd;}.cls-2{fill:#b85e26;}.cls-3{fill:#fff;}.cls-4{fill:#ffac45;}.cls-5{fill:#e67a25;}.cls-6{fill:#d65a6f;}</style></defs><title>tiger</title><g id="Lager_2" data-name="Lager 2"><g id="Background"><path class="cls-1" d="M134,75.35c-1.69-2.18-7.5-9.2-7.5-9.2l13.55-3.87-4.6-3.63c-4.6-3.63-16.94-8.47-16.94-8.47s-.13-1.1-.42-2.83v0c-.05-.3-.11-.62-.17-1l-.07-.39-.13-.68-.1-.49-.14-.66-.13-.57-.15-.66-.15-.61-.18-.69-.16-.62-.24-.84-.24-.82c-.09-.3-.18-.61-.28-.92h0c-.18-.55-.36-1.11-.56-1.66h0c-.28-.77-.58-1.54-.9-2.28v0q-.22-.5-.45-1A16,16,0,0,0,123.12,19,15.79,15.79,0,0,0,107.51,3a15.61,15.61,0,0,0-14.42,9.87l-.46-.19a52.74,52.74,0,0,0-7.8-2.3h0l-1-.2-.55-.11-.93-.17L81.8,9.8l-1.73-.24-.3,0L79,9.44l-.47,0-.77-.06-.3,0L75.8,9.22h0c-1.55-.05-2.68,0-3.27,0s-1.72-.08-3.27,0h0l-1.62.08-.31,0-.76.06-.48,0-.8.08-.35,0-1.68.23-.57.09-.93.16-.56.11-1,.2h0a52.6,52.6,0,0,0-7.8,2.3l-.46.19A15.61,15.61,0,0,0,37.55,3,15.79,15.79,0,0,0,21.94,19,16,16,0,0,0,31,33.47q-.23.49-.45,1v0c-.32.75-.62,1.51-.9,2.28h0c-.2.55-.38,1.1-.56,1.66h0l0,.05q-.19.6-.36,1.2l-.09.33-.24.85-.1.4-.2.75-.1.42-.17.71-.09.4-.15.7-.08.35-.15.71-.06.27-.16.85v.06c-.41,2.23-.58,3.71-.58,3.71S14.2,55,9.6,58.66L5,62.29l13.55,3.87s-5.81,7-7.5,9.2a19.76,19.76,0,0,0-2.42,3.87H20l-.48.78h0c-.59,1-1.62,2.69-2.65,4.6l-.11.21-.37.71-.14.26-.37.73-.11.22-.45.94-.05.12-.34.78-.12.29-.24.59-.12.3c-.07.19-.14.38-.2.56l-.09.26c-.08.26-.15.51-.21.75a28.21,28.21,0,0,0-.73,7.35c0,.1,0,.15,0,.15s.52-.21,1.48-.53l1.47-.46A65.91,65.91,0,0,1,37.91,95.2a38.18,38.18,0,0,1,17.19,5.44c.66.38,1.29.75,1.9,1.13,3.61,2.22,6.48,4.36,8.74,5.29l.06,0,1.16.45.33.12.91.31.15,0,.92.27.23.06.66.16.15,0,.68.13.12,0,.5.07h.07a9.5,9.5,0,0,0,1.7,0h.07l.51-.07.1,0,.69-.13.13,0,.68-.17.21-.06.94-.28.11,0,1-.33.3-.11,1.23-.48a17.48,17.48,0,0,0,2.16-1.1c1.36-.8,2.88-1.83,4.6-2.93,5.15-3.32,12-7.34,21.07-7.82a65.91,65.91,0,0,1,21.74,2.64l1.47.46c1,.32,1.48.53,1.48.53s0-.12,0-.34a28.56,28.56,0,0,0-.74-7.16c-.06-.24-.13-.5-.21-.76l-.07-.2c-.07-.2-.14-.41-.22-.62l-.1-.26-.26-.65-.1-.24-.38-.85,0,0c-.15-.32-.3-.63-.46-1l-.09-.19-.38-.76-.13-.25-.37-.71-.12-.22-.46-.84,0,0c-.34-.61-.67-1.19-1-1.72l-.05-.09-.39-.66-.05-.09-.7-1.15h0l-.49-.78h11.37A19.74,19.74,0,0,0,134,75.35Z"/></g><g id="Objects"><path class="cls-2" d="M100.57,9.43a9,9,0,0,1,8.87,9.08,9.14,9.14,0,0,1-3.19,7c.75,1.21,1.44,2.43,2.08,3.62l.1.18v0c.2.38.39.77.58,1.16A16,16,0,0,0,118.12,16,15.79,15.79,0,0,0,102.51,0,15.61,15.61,0,0,0,88.09,9.87a37.32,37.32,0,0,1,5.68,2.82A8.77,8.77,0,0,1,100.57,9.43Z"/><path class="cls-3" d="M109.44,18.51a9,9,0,0,0-8.87-9.08,8.77,8.77,0,0,0-6.81,3.26,37.79,37.79,0,0,1,12.49,12.79A9.14,9.14,0,0,0,109.44,18.51Z"/><path class="cls-2" d="M26.62,29.28l.12-.21h0c.64-1.19,1.32-2.39,2.07-3.59a9.14,9.14,0,0,1-3.19-7,9,9,0,0,1,8.87-9.08,8.77,8.77,0,0,1,6.81,3.26A37.33,37.33,0,0,1,47,9.87,15.61,15.61,0,0,0,32.55,0,15.79,15.79,0,0,0,16.94,16,16,16,0,0,0,26,30.47c.19-.39.38-.78.58-1.16Z"/><path class="cls-3" d="M34.48,9.43a9,9,0,0,0-8.87,9.08,9.14,9.14,0,0,0,3.19,7A37.79,37.79,0,0,1,41.29,12.69,8.77,8.77,0,0,0,34.48,9.43Z"/><path class="cls-4" d="M124.2,83.55l.09.19Z"/><path class="cls-4" d="M124.75,84.69l0,0Z"/><path class="cls-4" d="M123.68,82.54l.13.25Z"/><path class="cls-4" d="M125.15,85.59l.1.24Z"/><path class="cls-4" d="M125.51,86.48l.1.26Z"/><path class="cls-4" d="M121.24,78.16l.05.09Z"/><path class="cls-4" d="M122.71,80.72l0,0Z"/><path class="cls-4" d="M123.19,81.6l.12.22Z"/><path class="cls-4" d="M121.68,78.91l.05.09Z"/><path class="cls-4" d="M125.82,87.36l.07.2Z"/><path class="cls-4" d="M74,6.44l.81.08Z"/><path class="cls-4" d="M102.15,92.2c-12.07.64-20.25,7.57-25.67,10.75,5.42-3.18,13.6-10.12,25.67-10.75a65.91,65.91,0,0,1,21.74,2.64A65.93,65.93,0,0,0,102.15,92.2Z"/><path class="cls-4" d="M75.07,6.56l1.73.24Q75.9,6.66,75.07,6.56Z"/><path class="cls-4" d="M72.72,6.33l.77.06Z"/><path class="cls-5" d="M131.43,76.22A19.74,19.74,0,0,0,129,72.35c-1.69-2.18-7.5-9.2-7.5-9.2l13.55-3.87-4.6-3.63c-4.6-3.63-16.94-8.47-16.94-8.47s-.13-1.1-.42-2.83a62.94,62.94,0,0,1-5.88,2.58c-2,1-4.08,1.75-6.09,2.57,0-2.09,3.32-5.36,4.49-7.09,1.44-2.12,3.13-4.19,4.71-6.16.18-.23.4-.54.63-.82a68,68,0,0,1,2.13,8.9,64.79,64.79,0,0,0-2.69-10.55c-1.56.92-3.61,1.57-5,2.24-1.76.86-4.12,2.28-6.07,2.36.21-1.44,6.7-7.89,9-9.3l0,0c-.64-1.19-1.33-2.41-2.08-3.62A37.79,37.79,0,0,0,93.77,12.69a37.32,37.32,0,0,0-5.68-2.82l-.46-.19a53.09,53.09,0,0,0-8.79-2.52l1,.2A74.86,74.86,0,0,1,77.34,19.2c-.83,3.19-1.53,6.68-3,9.61a156.58,156.58,0,0,1-2.76-16.56c-.25-1.88-.43-4-.76-6l1.62.08a39.06,39.06,0,0,0-4.89-.05,39,39,0,0,0-4.89.05l1.62-.08c-.33,2-.5,4.15-.76,6a156.57,156.57,0,0,1-2.76,16.56c-1.5-2.93-2.2-6.42-3-9.61A74.85,74.85,0,0,1,55.23,7.36l1-.2a53.12,53.12,0,0,0-8.78,2.52L47,9.87a37.33,37.33,0,0,0-5.68,2.82A37.79,37.79,0,0,0,28.8,25.48c-.75,1.2-1.43,2.41-2.07,3.59,2.28,1.42,8.77,7.86,9,9.3-1.95-.08-4.31-1.5-6.07-2.36-1.38-.67-3.43-1.31-5-2.24-.2.55-.38,1.1-.56,1.66.24.28.45.59.63.82,1.58,2,3.27,4,4.71,6.16,1.17,1.73,4.44,5,4.49,7.09-2-.82-4.11-1.6-6.09-2.57A62.7,62.7,0,0,1,22,44.36a68.24,68.24,0,0,1,2.12-8.87,69.71,69.71,0,0,0-2.54,11.7S9.2,52,4.6,55.66L0,59.29l13.55,3.87s-5.81,7-7.5,9.2a19.76,19.76,0,0,0-2.42,3.87H15l-.48.78c11.23-12.84,35-14.75,53-14,18-.74,41.78,1.17,53,14l-.49-.78Z"/><path class="cls-4" d="M109.5,31.49c.32.75.62,1.51.9,2.28C110.12,33,109.82,32.24,109.5,31.49Z"/><path class="cls-4" d="M74.32,104.05l-1.23.48Z"/><path class="cls-4" d="M77.36,6.89l.93.17Z"/><path class="cls-4" d="M72.79,104.64l-1,.33Z"/><path class="cls-4" d="M71.72,105l-.94.28Z"/><path class="cls-4" d="M125.35,95.3l-1.47-.46Z"/><path class="cls-4" d="M69.75,105.53l-.69.13Z"/><path class="cls-4" d="M70.57,105.33l-.68.17Z"/><path class="cls-4" d="M69,105.68l-.51.07Z"/><path class="cls-4" d="M109.48,31.46q-.22-.5-.45-1c-.19-.39-.38-.78-.58-1.16C108.82,30,109.16,30.72,109.48,31.46Z"/><path class="cls-4" d="M11.75,81.82l.11-.21Z"/><path class="cls-4" d="M24.66,33.77c.28-.77.58-1.54.9-2.28C25.24,32.24,24.94,33,24.66,33.77Z"/><path class="cls-4" d="M10.26,84.8l.05-.12Z"/><path class="cls-4" d="M11.24,82.8l.14-.26Z"/><path class="cls-4" d="M10.76,83.74l.11-.22Z"/><path class="cls-4" d="M56.77,7.05l.93-.16Z"/><path class="cls-4" d="M9.8,85.86l.12-.29Z"/><path class="cls-4" d="M60.29,6.52l.8-.08Z"/><path class="cls-4" d="M58.26,6.8l1.68-.23Z"/><path class="cls-4" d="M61.57,6.39l.76-.06Z"/><path class="cls-4" d="M11.17,94.84A65.91,65.91,0,0,1,32.91,92.2c7.94.42,14.19,3.56,19.09,6.57-4.9-3-11.15-6.15-19.09-6.57A65.93,65.93,0,0,0,11.17,94.84Z"/><path class="cls-4" d="M62,104.52l-1.16-.45Z"/><path class="cls-4" d="M9.16,87.58l.09-.26Z"/><path class="cls-4" d="M11.17,94.84l-1.47.46Z"/><path class="cls-4" d="M65.16,105.5l-.66-.16Z"/><path class="cls-4" d="M63.19,105l-.91-.31Z"/><path class="cls-4" d="M64.27,105.28l-.92-.27Z"/><path class="cls-4" d="M9.45,86.76l.12-.3Z"/><path class="cls-4" d="M66,105.66l-.68-.13Z"/><path class="cls-4" d="M66.61,105.74l-.5-.07Z"/><path class="cls-4" d="M26.61,29.31c-.2.38-.39.77-.58,1.16s-.31.66-.45,1C25.89,30.72,26.24,30,26.61,29.31Z"/><path class="cls-4" d="M67.53,105.79a6.92,6.92,0,0,1-.85,0,9.5,9.5,0,0,0,1.7,0A7,7,0,0,1,67.53,105.79Z"/><path class="cls-3" d="M67.53,63c-18-.74-41.78,1.17-53,14h0c-.59,1-1.62,2.69-2.65,4.6l-.11.21-.37.71-.14.26-.37.73-.11.22-.45.94-.05.12-.34.78-.12.29-.24.59-.12.3c-.07.19-.14.38-.2.56l-.09.26c-.08.26-.15.51-.21.75a28.21,28.21,0,0,0-.73,7.35c0,.1,0,.15,0,.15s.52-.21,1.48-.53l1.47-.46A65.93,65.93,0,0,1,32.91,92.2c7.94.42,14.19,3.56,19.09,6.57,3.61,2.22,6.48,4.36,8.74,5.29l.06,0,1.16.45.33.12.91.31.15,0,.92.27.23.06.66.16.15,0,.68.13.12,0,.5.07h.07a9.5,9.5,0,0,0,1.7,0h.07l.51-.07.1,0,.69-.13.13,0,.68-.17.21-.06.94-.28.11,0,1-.33.3-.11,1.23-.48a17.48,17.48,0,0,0,2.16-1.1c5.42-3.18,13.6-10.12,25.67-10.75a65.93,65.93,0,0,1,21.74,2.64l1.47.46c1,.32,1.48.53,1.48.53s0-.12,0-.34a28.56,28.56,0,0,0-.74-7.16c-.06-.24-.13-.5-.21-.76l-.07-.2c-.07-.2-.14-.41-.22-.62l-.1-.26-.26-.65-.1-.24-.38-.85,0,0c-.15-.32-.3-.63-.46-1l-.09-.19-.38-.76-.13-.25-.37-.71-.12-.22-.46-.84,0,0c-.34-.61-.67-1.19-1-1.72l-.05-.09-.39-.66-.05-.09-.7-1.15h0C109.31,64.17,85.53,62.26,67.53,63Zm0,28.87c-5.31,8-14.25,4.12-19.87-2.16.27-.27,7.53,6,12.81,5.27,2.48-.34,4.58-2,6.24-4.91V77.94a47.49,47.49,0,0,1-5.49-3.37c-7-5-7.16-9.85,6.3-9.71,13.47-.14,13.35,4.74,6.31,9.71a47.4,47.4,0,0,1-5.49,3.37V90.07C70,93,72.11,94.63,74.59,95c5.28.72,12.54-5.54,12.81-5.27C81.77,96,72.84,99.88,67.53,91.87Z"/><path d="M110.33,36.25c-1.58,2-3.27,4-4.71,6.16-1.17,1.73-4.44,5-4.49,7.09,2-.82,4.11-1.6,6.09-2.57a62.94,62.94,0,0,0,5.88-2.58h0v0a68,68,0,0,0-2.13-8.9C110.72,35.71,110.51,36,110.33,36.25Z"/><path d="M108.45,29.31v0l-.1-.18,0,0c-2.28,1.41-8.77,7.86-9,9.3,1.95-.08,4.31-1.5,6.07-2.36,1.38-.67,3.43-1.31,5-2.24h0c-.28-.77-.58-1.54-.9-2.28v0C109.16,30.72,108.82,30,108.45,29.31Z"/><path d="M71.56,12.25a156.58,156.58,0,0,0,2.76,16.56c1.5-2.93,2.2-6.42,3-9.61A74.86,74.86,0,0,0,79.83,7.36l-1-.2-.55-.11-.93-.17L76.8,6.8l-1.73-.24-.3,0L74,6.44l-.47,0-.77-.06-.3,0L70.8,6.22C71.12,8.23,71.3,10.37,71.56,12.25Z"/><path d="M27.84,46.94c2,1,4.08,1.75,6.09,2.57,0-2.09-3.32-5.36-4.49-7.09-1.44-2.12-3.12-4.19-4.71-6.16-.19-.23-.4-.54-.63-.82h0l0,.05A68.24,68.24,0,0,0,22,44.36,62.7,62.7,0,0,0,27.84,46.94Z"/><path d="M35.71,38.37c-.21-1.44-6.7-7.89-9-9.3h0l-.12.21v0c-.37.69-.71,1.41-1,2.15v0c-.32.75-.62,1.51-.9,2.28h0c1.56.92,3.61,1.57,5,2.24C31.4,36.87,33.76,38.29,35.71,38.37Z"/><path d="M57.71,19.2c.83,3.19,1.53,6.68,3,9.61A156.57,156.57,0,0,0,63.5,12.25c.25-1.88.43-4,.76-6l-1.62.08-.31,0-.76.06-.48,0-.8.08-.35,0-1.68.23-.57.09-.93.16-.56.11-1,.2A74.85,74.85,0,0,0,57.71,19.2Z"/><path d="M74.59,95c-2.48-.34-4.58-2-6.24-4.91V77.94l-.82.42-.81-.42V90.07C65.05,93,63,94.63,60.47,95c-5.28.72-12.54-5.54-12.81-5.27C53.28,96,62.22,99.88,67.53,91.87c5.31,8,14.25,4.12,19.87-2.16C87.13,89.44,79.87,95.7,74.59,95Z"/><path class="cls-6" d="M67.53,78.36l.82-.42a47.4,47.4,0,0,0,5.49-3.37c7-5,7.16-9.85-6.31-9.71-13.47-.14-13.35,4.74-6.3,9.71a47.49,47.49,0,0,0,5.49,3.37Z"/><path class="cls-3" d="M45.46,54.52a5.8,5.8,0,1,0-4.56-6.82A5.8,5.8,0,0,0,45.46,54.52ZM43,48.12a3.66,3.66,0,1,1,7.18,1.43,3.79,3.79,0,0,1-.22.72A3.52,3.52,0,0,0,47.74,49a4.32,4.32,0,0,0-4.35,1.64A3.63,3.63,0,0,1,43,48.12Z"/><path d="M47.74,49A3.52,3.52,0,0,1,50,50.27a3.79,3.79,0,0,0,.22-.72,3.66,3.66,0,1,0-6.79,1.06A4.32,4.32,0,0,1,47.74,49Z"/><path class="cls-3" d="M91.28,47.7a5.8,5.8,0,1,0-4.56,6.82A5.8,5.8,0,0,0,91.28,47.7Zm-2.48,2.9A4.32,4.32,0,0,0,84.45,49a3.52,3.52,0,0,0-2.22,1.3,3.79,3.79,0,0,1-.22-.72,3.66,3.66,0,1,1,6.79,1.06Z"/><path d="M84.45,49a3.52,3.52,0,0,0-2.22,1.3,3.79,3.79,0,0,1-.22-.72,3.66,3.66,0,1,1,6.79,1.06A4.32,4.32,0,0,0,84.45,49Z"/></g></g></svg>