<svg xmlns="http://www.w3.org/2000/svg" viewBox="0 0 97.7 124.19"><defs><style>.cls-1{fill:#bcbcb7;fill-rule:evenodd;}.cls-2{fill:#fff;}.cls-3{fill:#404040;}</style></defs><title>zebra</title><g id="Lager_2" data-name="Lager 2"><g id="Background"><path class="cls-1" d="M97.21,75.58c.13-.91.23-1.83.31-2.75,0-.08,0-.15,0-.23.07-.93.12-1.86.14-2.8,0-.32,0-.64,0-1,0-1.45-.08-2.87-.21-4.28h0l0-.14c-.07-.75-.16-1.49-.26-2.23s-.25-1.65-.42-2.46v0A46.13,46.13,0,0,0,88.1,40.61q-.79-1-1.64-2l-.1-.12q-.84-1-1.73-1.89h0a46.58,46.58,0,0,0-5.31-4.7c.6-.48,1.2-1,1.78-1.54C83.34,28.21,98,14.67,87.67,6S68.67,11.91,66,20.49c-.46,1.49-.93,2.79-1.38,3.94-1.26-.38-2.54-.71-3.85-1L63,7.92A15.59,15.59,0,0,0,51.35,3,15.59,15.59,0,0,0,39.68,7.92l2.25,15.53c-1.32.27-2.61.61-3.88,1-.45-1.15-.92-2.46-1.38-3.95C34,11.91,25.33-2.67,15,6s4.33,22.21,6.57,24.33c.59.56,1.19,1.08,1.8,1.56a46.63,46.63,0,0,0-5.29,4.69h0q-.9.93-1.75,1.91l-.09.11q-.85,1-1.64,2h0a46.1,46.1,0,0,0-8.7,19.07v0q-.24,1.2-.41,2.42c-.11.76-.2,1.53-.27,2.3v.11h0C5.08,66,5,67.39,5,68.84c0,.32,0,.64,0,1,0,.94.07,1.87.14,2.8,0,.08,0,.15,0,.23.08.93.18,1.84.31,2.75v0a46.24,46.24,0,0,0,1.06,5.17v0c.24.89.51,1.78.8,2.65l.09.27c.3.87.62,1.74,1,2.59h0a46.24,46.24,0,0,0,6.2,10.79,44.36,44.36,0,0,0,8.69,9.71c1.25,6.52,7.3,17.37,28.34,17.37,21.4,0,27.29-11.24,28.4-17.71a44.3,44.3,0,0,0,9.86-11.93,46.32,46.32,0,0,0,4.37-8.23c.35-.85.66-1.71,1-2.58l.09-.28c.29-.87.56-1.75.8-2.64v0h0a46,46,0,0,0,1.06-5.17Z"/></g><g id="Objects"><path class="cls-2" d="M.22,61.44c.07-.77.16-1.54.27-2.3C.38,59.9.29,60.67.22,61.44Z"/><path class="cls-2" d="M92.22,59.19c.11.74.19,1.48.26,2.23C92.41,60.67,92.33,59.92,92.22,59.19Z"/><path class="cls-2" d="M92.49,61.56,74,65.13s14-6.67,17.76-8.44A46.13,46.13,0,0,0,83.1,37.61L65.37,50.84,79.62,33.58a46.58,46.58,0,0,0-5.31-4.7c.6-.48,1.2-1,1.78-1.54C78.34,25.21,93,11.67,82.67,3S63.67,8.91,61,17.49c-.46,1.49-.93,2.79-1.38,3.94-1.26-.38-2.54-.71-3.85-1l0,.29c-5.29.74-9.38,19.68-9.38,19.68S42.26,21.47,37,20.74l0-.29c-1.32.27-2.61.61-3.88,1-.45-1.15-.92-2.46-1.38-3.95C29,8.91,20.33-5.67,10,3s4.33,22.21,6.57,24.33c.59.56,1.19,1.08,1.8,1.56a46.63,46.63,0,0,0-5.29,4.69L27.33,50.84,9.61,37.62A46.1,46.1,0,0,0,.91,56.69c3.79,1.76,17.76,8.44,17.76,8.44L.21,61.56C.08,63,0,64.39,0,65.84c0,.32,0,.64,0,1l16.31,2.86L.5,72.62a46.24,46.24,0,0,0,1.06,5.17C5.71,77.3,15,76,15,76L3.43,83.31A46.24,46.24,0,0,0,9.63,94.1a44.36,44.36,0,0,0,8.69,9.71,14.45,14.45,0,0,1-.28-2.68c0-14.4,17.29-20.77,28.62-20.77s28.62,6.37,28.62,20.77a14.1,14.1,0,0,1-.22,2.35,44.3,44.3,0,0,0,9.86-11.93,46.32,46.32,0,0,0,4.37-8.23L77.67,76S87,77.3,91.14,77.79a46,46,0,0,0,1.06-5.17l-15.83-3,16.31-2.86c0-.32,0-.64,0-1C92.7,64.39,92.63,63,92.49,61.56ZM76.1,11.33c4.24,2-.76,11.33-9.43,15.33C66.67,26.67,71.86,9.33,76.1,11.33Zm-59.53,0C20.81,9.33,26,26.67,26,26.67,17.33,22.67,12.33,13.33,16.57,11.33ZM32.2,75.81a7.35,7.35,0,1,1,7.6-7.08A7.35,7.35,0,0,1,32.2,75.81Zm28.31,0a7.35,7.35,0,1,1,7.08-7.61A7.35,7.35,0,0,1,60.5,75.81Z"/><path class="cls-3" d="M60.86,59.57a8.9,8.9,0,1,0,9.21,8.58A8.9,8.9,0,0,0,60.86,59.57Z"/><path class="cls-3" d="M31.84,59.57a8.9,8.9,0,1,0,8.57,9.21A8.9,8.9,0,0,0,31.84,59.57Z"/><path class="cls-3" d="M46.65,80.36C35.33,80.36,18,86.74,18,101.13a14.45,14.45,0,0,0,.28,2.68c1.25,6.52,7.3,17.37,28.34,17.37,21.4,0,27.29-11.24,28.4-17.71a14.1,14.1,0,0,0,.22-2.35C75.27,86.74,58,80.36,46.65,80.36Zm15.59,23.23c.73,4.5-7.71,7.61-7.71,7.61C53.06,101.66,61.5,99.09,62.24,103.59Zm-24.1,7.61s-8.44-3.11-7.71-7.61S39.61,101.66,38.14,111.2Z"/><path class="cls-2" d="M62.24,103.59c-.74-4.5-9.18-1.93-7.71,7.61C54.53,111.2,63,108.09,62.24,103.59Z"/><path class="cls-2" d="M38.14,111.2c1.47-9.54-7-12.11-7.71-7.61S38.14,111.2,38.14,111.2Z"/><path class="cls-3" d="M26,26.67S20.81,9.33,16.57,11.33,17.33,22.67,26,26.67Z"/><path class="cls-3" d="M76.1,11.33c-4.24-2-9.43,15.33-9.43,15.33C75.33,22.67,80.33,13.33,76.1,11.33Z"/><path class="cls-3" d="M46.35,40.42s4.09-18.94,9.38-19.68l0-.29L58,4.92A15.59,15.59,0,0,0,46.35,0,15.59,15.59,0,0,0,34.68,4.92l2.25,15.53,0,.29C42.26,21.47,46.35,40.42,46.35,40.42Z"/><path class="cls-3" d="M15,76S5.71,77.3,1.56,77.79v0c.24.89.51,1.78.8,2.65l.09.27c.3.87.62,1.74,1,2.59h0Z"/><path class="cls-3" d="M16.33,69.67,0,66.81c0,.94.07,1.87.14,2.8,0,.08,0,.15,0,.23.08.93.18,1.84.31,2.75v0Z"/><path class="cls-3" d="M18.67,65.13S4.69,58.45.91,56.69v0q-.24,1.2-.41,2.42c-.11.76-.2,1.53-.27,2.3v.11h0Z"/><path class="cls-3" d="M27.33,50.84,13.08,33.58h0q-.9.93-1.75,1.91l-.09.11q-.85,1-1.64,2h0Z"/><path class="cls-3" d="M77.67,76l11.62,7.32c.35-.85.66-1.71,1-2.58l.09-.28c.29-.87.56-1.75.8-2.64v0h0C87,77.3,77.67,76,77.67,76Z"/><path class="cls-3" d="M76.37,69.67l15.83,3v0c.13-.91.23-1.83.31-2.75,0-.08,0-.15,0-.23.07-.93.12-1.86.14-2.8Z"/><path class="cls-3" d="M74,65.13l18.46-3.57h0l0-.14c-.07-.75-.16-1.49-.26-2.23s-.25-1.65-.42-2.46v0C88,58.45,74,65.13,74,65.13Z"/><path class="cls-3" d="M65.37,50.84,83.1,37.61q-.79-1-1.64-2l-.1-.12q-.84-1-1.73-1.89h0Z"/><path class="cls-2" d="M30.62,73.52a5.41,5.41,0,1,0-4.26-6.37A5.42,5.42,0,0,0,30.62,73.52Zm-2.3-6A3.42,3.42,0,1,1,35,68.87a3.51,3.51,0,0,1-.21.67,3.29,3.29,0,0,0-2.08-1.22,4,4,0,0,0-4.06,1.53A3.39,3.39,0,0,1,28.33,67.54Z"/><path d="M32.75,68.33a3.29,3.29,0,0,1,2.08,1.22,3.51,3.51,0,0,0,.21-.67,3.42,3.42,0,1,0-6.35,1A4,4,0,0,1,32.75,68.33Z"/><path class="cls-2" d="M66.15,67.15a5.42,5.42,0,1,0-4.26,6.37A5.42,5.42,0,0,0,66.15,67.15Zm-2.32,2.71a4,4,0,0,0-4.06-1.53,3.29,3.29,0,0,0-2.08,1.22,3.52,3.52,0,0,1-.21-.67,3.42,3.42,0,1,1,6.35,1Z"/><path d="M59.77,68.33a3.29,3.29,0,0,0-2.08,1.22,3.52,3.52,0,0,1-.21-.67,3.42,3.42,0,1,1,6.35,1A4,4,0,0,0,59.77,68.33Z"/></g></g></svg>